<?xml version="1.0" encoding="UTF-8"?>
<svg id="a" data-name="Layer 1" xmlns="http://www.w3.org/2000/svg" width="250" height="250" xmlns:xlink="http://www.w3.org/1999/xlink" viewBox="150 150 700 700">
  <defs>
    <radialGradient id="b" cx="528.4" cy="436.86" fx="528.4" fy="436.86" r="203.56" gradientUnits="userSpaceOnUse">
      <stop offset=".82" stop-color="#63155b"/>
      <stop offset=".99" stop-color="#410e3e"/>
      <stop offset="1" stop-color="#3f0e3d"/>
    </radialGradient>
  </defs>
  <g>
    <path d="M528.4,640.42c-112.24,0-203.56-91.31-203.56-203.56s91.32-203.56,203.56-203.56,203.55,91.31,203.55,203.56-91.31,203.56-203.55,203.56Z" fill="url(#b)"/>
    <path d="M528.4,244.55c106.21,0,192.32,86.1,192.32,192.32s-86.1,192.32-192.32,192.32-192.32-86.1-192.32-192.32,86.1-192.32,192.32-192.32M528.4,222.07c-28.99,0-57.12,5.68-83.61,16.89-25.58,10.82-48.55,26.3-68.27,46.02-19.72,19.72-35.2,42.69-46.02,68.27-11.21,26.5-16.89,54.63-16.89,83.62s5.68,57.12,16.89,83.62c10.82,25.58,26.3,48.55,46.02,68.27,19.72,19.72,42.69,35.2,68.27,46.02,26.5,11.21,54.63,16.89,83.61,16.89s57.12-5.68,83.62-16.89c25.58-10.82,48.55-26.3,68.27-46.02,19.72-19.72,35.2-42.69,46.02-68.27,11.21-26.5,16.89-54.63,16.89-83.62s-5.68-57.12-16.89-83.62c-10.82-25.58-26.3-48.55-46.02-68.27-19.72-19.72-42.69-35.2-68.27-46.02-26.5-11.21-54.63-16.89-83.62-16.89h0Z" fill="#0e1820"/>
    <path d="M528.4,244.55c106.21,0,192.32,86.1,192.32,192.32s-86.1,192.32-192.32,192.32-192.32-86.1-192.32-192.32,86.1-192.32,192.32-192.32M528.4,233.31c-27.47,0-54.13,5.38-79.24,16-24.24,10.25-46.01,24.93-64.7,43.62-18.69,18.69-33.37,40.46-43.62,64.7-10.62,25.1-16,51.76-16,79.24s5.38,54.13,16,79.24c10.25,24.24,24.93,46.01,43.62,64.7,18.69,18.69,40.46,33.37,64.7,43.62,25.1,10.62,51.76,16,79.24,16s54.13-5.38,79.24-16c24.24-10.25,46.01-24.93,64.7-43.62,18.69-18.69,33.37-40.46,43.62-64.7,10.62-25.1,16-51.76,16-79.24s-5.38-54.13-16-79.24c-10.25-24.24-24.93-46.01-43.62-64.7-18.69-18.69-40.46-33.37-64.7-43.62-25.1-10.62-51.76-16-79.24-16h0Z" fill="#fff"/>
  </g>

  <path d="M757.42,615.97h-493.88c-13.81,0-26.97,11.19-29.41,25l-12.13,68.79c-2.43,13.81,6.78,25,20.59,25h88.05c3.94,0,6.99,2.4,7.98,5.99,2.39,8.67,10.05,14.7,20.19,14.7h254.14c10.14,0,19.92-6.03,25.37-14.7,2.26-3.59,6.15-5.99,10.1-5.99h88.05c13.81,0,26.97-11.19,29.41-25l12.13-68.79c2.43-13.81-6.78-25-20.59-25Z" fill="#fff" stroke="#0e1820" stroke-miterlimit="10" stroke-width="10"/>
  <g>
    <path d="M269.76,687.6l3.04-21.45c2.18-15.35,5.94-19.55,17.82-19.55,12.6,0,17.03,5.03,14.91,19.55l-.92,6.27-13.92.33.99-7.01c.4-2.81-.2-3.8-1.58-3.8s-2.38.99-2.77,3.8l-3.17,22.36c-.4,2.8.26,3.79,1.72,3.79,1.58,0,2.38-.99,2.77-3.79l.99-7.1,13.86.33-.86,6.19c-2.18,15.43-5.87,19.64-17.75,19.64-12.87,0-17.29-4.37-15.11-19.55Z" fill="#0e1820"/>
    <path d="M304.41,706.16c.66-4.12,1.25-8.5,2.18-15.1l4.75-33.74c.59-3.88.99-6.85,1.32-9.74h14.25c-.46,3.05-.92,6.11-1.52,10.23l-4.55,32.59h3.63c1.98,0,3.37,0,6.53-.08l-2.24,15.84h-24.35Z" fill="#0e1820"/>
    <path d="M339.72,657.65c.53-4.04.99-7.18,1.32-10.07h24.95l-2.05,14.77c-3.96-.08-6.27-.08-9.57-.08h-1.19l-1.06,7.34h9.57l-1.91,13.78c-3.3-.08-6.4-.08-9.04-.08h-.53l-1.19,8.17h2.05c2.64,0,4.22,0,9.57-.08l-2.11,14.77h-25.74c.53-3.05.99-6.44,1.58-10.73l5.35-37.79Z" fill="#0e1820"/>
    <path d="M399.71,647.58c-.66,13.37-1.91,44.88-2.31,58.58h-15.05l.66-7.67h-5.02l-1.45,7.67h-15.71c3.5-13.7,11.15-45.21,14.39-58.58h24.48ZM380.77,683.97h3.5l.33-3.8c.46-5.61.99-11.63,1.39-17.24h-1.19c-1.12,5.69-2.24,11.8-3.37,17.49l-.66,3.55Z" fill="#0e1820"/>
    <path d="M402.36,695.43l5.35-37.95c.53-3.96.92-6.76,1.32-9.9h17.62l-.07,14.27c-.07,7.67-.26,16.17-.46,22.77.99-7.67,2.38-18.4,3.1-23.43.46-3.3.99-7.1,1.91-13.61h11.55c-.53,3.14-.86,5.78-1.45,9.9l-5.35,37.95c-.46,3.3-.92,6.68-1.45,10.73h-18.02l.13-12.79c.07-6.35.13-13.28.2-19.55-.99,7.59-1.98,15.18-2.51,18.73-.46,3.3-.99,7.01-1.91,13.61h-11.55c.53-3.3.92-6.27,1.58-10.73Z" fill="#0e1820"/>
    <path d="M446.71,657.65c.53-4.04.99-7.09,1.32-10.07h14.25c-.46,2.97-.92,6.02-1.45,10.07l-5.35,37.79c-.59,4.37-1.06,7.51-1.45,10.73h-14.25c.53-3.13.99-6.44,1.58-10.73l5.35-37.79Z" fill="#0e1820"/>
    <path d="M460.96,695.43l5.35-37.95c.53-3.96.92-6.76,1.32-9.9h17.62l-.07,14.27c-.07,7.67-.26,16.17-.46,22.77.99-7.67,2.38-18.4,3.1-23.43.46-3.3.99-7.1,1.91-13.61h11.55c-.53,3.14-.86,5.78-1.45,9.9l-5.35,37.95c-.46,3.3-.92,6.68-1.45,10.73h-18.02l.13-12.79c.07-6.35.13-13.28.2-19.55-.99,7.59-1.98,15.18-2.51,18.73-.46,3.3-.99,7.01-1.91,13.61h-11.55c.53-3.3.92-6.27,1.58-10.73Z" fill="#0e1820"/>
    <path d="M500.23,687.6l3.04-21.45c2.18-15.35,5.81-19.55,18.35-19.55s16.5,4.21,14.39,19.55l-.26,1.82-13.99.33.4-2.97c.33-2.56.13-3.55-1.45-3.55s-2.51.99-2.9,3.8l-3.3,23.35c-.4,2.8.26,3.79,1.85,3.79,1.98,0,2.84-.99,3.23-3.79l.2-1.65h-2.71l1.85-12.95h16.17c-.59,4.04-.99,6.52-1.91,13.28-2.18,15.35-5.81,19.55-18.21,19.55s-16.89-4.21-14.72-19.55Z" fill="#0e1820"/>
    <path d="M559.57,657.65c.53-4.04.99-7.18,1.32-10.07h24.81l-2.05,14.77c-2.64-.08-5.87-.08-9.17-.08h-1.45l-1.65,11.47h9.83l-2.05,14.6c-3.3-.08-6.01-.08-8.65-.08h-1.19l-.99,7.18c-.59,4.37-1.06,7.51-1.45,10.73h-14.25c.53-3.13.99-6.44,1.58-10.73l5.35-37.79Z" fill="#0e1820"/>
    <path d="M588.54,657.65c.53-4.04.99-7.18,1.32-10.07h15.64c11.88,0,16.83,5.45,14.92,19.06l-.53,3.79c-1.12,8-3.23,12.79-7.59,15.26.46,2.06.86,4.37,1.19,6.85.73,4.87,1.52,9.9,2.11,13.61h-14.39c-.26-2.23-.66-5.61-.99-8.99l-.66-6.19h-1.58l-.66,4.46c-.59,4.37-1.06,7.59-1.45,10.73h-14.25c.53-3.05.99-6.44,1.58-10.73l5.35-37.79ZM602,662.1l-2.05,14.52h2.31c1.58,0,2.51-.99,2.9-3.8l.99-6.93c.4-2.81-.26-3.8-1.85-3.8h-2.31Z" fill="#0e1820"/>
    <path d="M626.22,657.65c.53-4.04.99-7.18,1.32-10.07h24.95l-2.05,14.77c-3.96-.08-6.27-.08-9.57-.08h-1.19l-1.06,7.34h9.57l-1.91,13.78c-3.3-.08-6.4-.08-9.04-.08h-.53l-1.19,8.17h2.05c2.64,0,4.22,0,9.57-.08l-2.11,14.77h-25.74c.53-3.05.99-6.44,1.58-10.73l5.35-37.79Z" fill="#0e1820"/>
    <path d="M686.21,647.58c-.66,13.37-1.91,44.88-2.31,58.58h-15.05l.66-7.67h-5.02l-1.45,7.67h-15.71c3.5-13.7,11.15-45.21,14.39-58.58h24.48ZM667.27,683.97h3.5l.33-3.8c.46-5.61.99-11.63,1.39-17.24h-1.19c-1.12,5.69-2.24,11.8-3.37,17.49l-.66,3.55Z" fill="#0e1820"/>
    <path d="M694.2,657.65c.53-4.04.99-7.09,1.32-10.07h14.25c-.46,2.97-.92,6.02-1.45,10.07l-1.58,11.3h1.19c1.19-4.7,2.18-8.25,3.04-11.14l2.97-10.23h16.76l.07.17c-3.76,9.57-7.59,19.31-11.35,28.96,1.06,9.82,2.18,19.55,3.63,29.29l-.07.17h-16.3l-.13-10.97c-.07-2.97-.13-6.85-.07-11.8h-1.78l-1.72,12.05c-.59,4.37-1.06,7.51-1.45,10.73h-14.25c.53-3.13.99-6.44,1.58-10.73l5.35-37.79Z" fill="#0e1820"/>
  </g>
  <g>
    <path d="M370.52,732.28c-.09,1.37-.45,2.59-1.08,3.65-.63,1.07-1.45,1.88-2.47,2.46-1.02.57-2.13.85-3.31.82-1.63-.04-2.92-.7-3.86-1.97-.94-1.27-1.45-2.99-1.54-5.17-.06-1.45.06-3.03.38-4.74.32-1.71.84-3.2,1.56-4.46.72-1.27,1.57-2.21,2.55-2.85.98-.63,2.05-.93,3.21-.91,1.7.04,3.05.68,4.04,1.92.99,1.24,1.53,2.96,1.62,5.14h-3.66c.01-1.2-.16-2.05-.52-2.56-.36-.51-.92-.78-1.7-.82-1.93-.08-3.11,1.8-3.53,5.64-.19,1.74-.29,2.98-.29,3.72-.04,2.2.62,3.33,1.96,3.4.87.04,1.56-.23,2.07-.8s.84-1.37.99-2.41l3.59-.05ZM366.54,715.92l1.78-1.77,3.1-.08v.28s-3.76,3.73-3.76,3.73h-2.27l-3.06-3.76v-.27s2.93.08,2.93.08l1.27,1.79Z" fill="#63155b"/>
    <path d="M375.23,738.94h-3.67l2.72-19.55h3.66l-2.71,19.55Z" fill="#63155b"/>
    <path d="M386.23,733.65c.16-1.01-.28-1.79-1.31-2.35l-1.76-.91c-2.47-1.39-3.65-3.28-3.52-5.67.05-1.09.35-2.07.9-2.92.55-.85,1.31-1.52,2.29-1.99.97-.47,2.04-.7,3.19-.68,1.55.04,2.79.6,3.73,1.69.94,1.09,1.41,2.56,1.39,4.39h-3.65c.02-.75-.11-1.35-.38-1.81-.28-.45-.73-.69-1.36-.71-.62-.02-1.16.16-1.63.54-.47.38-.75.88-.84,1.52-.14.9.4,1.63,1.6,2.2,1.2.57,2.07,1.07,2.62,1.48,1.71,1.28,2.51,3.01,2.41,5.18-.06,1.13-.35,2.12-.87,2.97-.52.85-1.25,1.51-2.18,1.97-.93.47-1.97.69-3.12.67-.85-.02-1.63-.18-2.35-.5-.72-.31-1.34-.77-1.86-1.37-1.05-1.21-1.55-2.8-1.5-4.77h3.68c-.04,1.02.11,1.78.46,2.29.35.51.94.77,1.77.77.62,0,1.13-.18,1.54-.53.41-.35.66-.84.76-1.47Z" fill="#63155b"/>
    <path d="M405.02,723.02h-4.55l-2.2,15.91h-3.68l2.21-15.91h-4.48l.52-3.64h12.7l-.5,3.64Z" fill="#63155b"/>
    <path d="M410.38,739.21c-1.63-.04-2.93-.72-3.91-2.01-.98-1.3-1.54-3.03-1.67-5.21-.07-1.07,0-2.34.2-3.79.21-1.45.58-2.79,1.11-4.02.53-1.23,1.19-2.25,1.99-3.06,1.33-1.37,2.86-2.03,4.6-1.99,1.07.03,2,.33,2.8.92.8.59,1.44,1.43,1.92,2.53.48,1.1.76,2.35.84,3.76.06.99,0,2.12-.15,3.39-.15,1.27-.44,2.47-.85,3.62-.41,1.15-.94,2.16-1.6,3.04-.65.88-1.42,1.57-2.3,2.09-.88.51-1.88.76-2.98.73ZM414.57,726.29c-.07-2.24-.77-3.4-2.08-3.49-1.02-.06-1.86.44-2.52,1.51-.67,1.07-1.11,2.65-1.32,4.73-.14,1.29-.19,2.29-.15,2.99.07,2.27.77,3.44,2.11,3.5.87.05,1.63-.34,2.26-1.17.63-.84,1.08-2.05,1.36-3.65s.4-3.07.35-4.42Z" fill="#63155b"/>
    <path d="M431.65,732.28c-.09,1.37-.45,2.59-1.08,3.65-.63,1.07-1.45,1.88-2.47,2.46-1.02.57-2.13.85-3.31.82-1.63-.04-2.92-.7-3.86-1.97-.94-1.27-1.45-2.99-1.54-5.17-.06-1.45.06-3.03.38-4.74.32-1.71.84-3.2,1.56-4.46.72-1.27,1.57-2.21,2.55-2.85.98-.63,2.05-.93,3.21-.91,1.7.04,3.05.68,4.04,1.92.99,1.24,1.53,2.96,1.62,5.14h-3.66c.01-1.2-.16-2.05-.52-2.56-.36-.51-.92-.78-1.7-.82-1.93-.08-3.11,1.8-3.53,5.64-.19,1.74-.29,2.98-.29,3.72-.04,2.2.62,3.33,1.96,3.4.87.04,1.56-.23,2.07-.8s.84-1.37.99-2.41l3.59-.05ZM428.35,714.15h3.94l-3.43,4.22h-3.09s2.58-4.22,2.58-4.22Z" fill="#63155b"/>
    <path d="M441.63,735.27h-5l-1.39,3.67h-4.05l8.28-19.55h3.46l2.89,19.55h-3.82l-.38-3.67ZM438.01,731.65h3.24l-.69-6.74-2.56,6.74Z" fill="#63155b"/>
    <path d="M464.75,738.94h-3.56l-3.74-12.34-1.72,12.34h-3.67l2.71-19.55h3.59l3.73,12.34,1.71-12.34h3.67l-2.72,19.55Z" fill="#63155b"/>
    <path d="M476.12,735.27h-5l-1.39,3.67h-4.05l8.28-19.55h3.46l2.89,19.55h-3.82l-.38-3.67ZM472.5,731.65h3.24l-.69-6.74-2.56,6.74Z" fill="#63155b"/>
    <path d="M497.22,731.15h-5.9l-1.08,7.79h-3.67l2.71-19.55h10.17l-.5,3.64h-6.49l-.62,4.5h5.9l-.5,3.63Z" fill="#63155b"/>
    <path d="M504.8,732.02h-2.04l-.97,6.92h-3.67l2.71-19.55h5.52c1.77.01,3.13.53,4.09,1.56.96,1.03,1.38,2.44,1.28,4.23-.08,1.41-.4,2.58-.98,3.51-.57.92-1.38,1.66-2.41,2.19l2.11,7.83v.23h-3.92l-1.72-6.92ZM503.25,728.4l2.15.03c.59,0,1.1-.18,1.53-.54.43-.36.74-.85.93-1.47s.24-1.23.16-1.81c-.14-1-.65-1.52-1.53-1.58h-2.49s-.75,5.37-.75,5.37Z" fill="#63155b"/>
    <path d="M522.51,730.64h-5.75l-.66,4.67h6.8l-.5,3.62h-10.47l2.71-19.55h10.5l-.5,3.64h-6.81l-.58,4.12h5.76l-.48,3.49Z" fill="#63155b"/>
    <path d="M532.95,735.27h-5l-1.39,3.67h-4.05l8.28-19.55h3.46l2.89,19.55h-3.82l-.38-3.67ZM529.33,731.65h3.24l-.69-6.74-2.56,6.74Z" fill="#63155b"/>
    <path d="M544.47,731.71l-1.91,2.24-.7,4.98h-3.67l2.71-19.55h3.68l-1.17,8.37,1.53-2.32,4.06-6.04h4.77l-6.49,8.85,3.6,10.7h-4.2l-2.2-7.22Z" fill="#63155b"/>
    <path d="M569.62,738.94h-3.56l-3.74-12.34-1.72,12.34h-3.67l2.71-19.55h3.59l3.73,12.34,1.71-12.34h3.67l-2.72,19.55Z" fill="#63155b"/>
    <path d="M575.72,738.94h-3.67l2.72-19.55h3.66l-2.71,19.55Z" fill="#63155b"/>
    <path d="M584.75,733.57l4.79-14.18h4.21l-7.56,19.55h-4.02l-2.62-19.55h3.97l1.22,14.18Z" fill="#63155b"/>
    <path d="M598.42,739.21c-1.63-.04-2.93-.72-3.91-2.01-.98-1.3-1.54-3.03-1.67-5.21-.07-1.07,0-2.34.2-3.79.21-1.45.58-2.79,1.11-4.02s1.19-2.25,1.99-3.06c1.33-1.37,2.86-2.03,4.6-1.99,1.07.03,2,.33,2.8.92.8.59,1.44,1.43,1.92,2.53.48,1.1.76,2.35.84,3.76.06.99,0,2.12-.14,3.39-.15,1.27-.44,2.47-.85,3.62-.41,1.15-.94,2.16-1.59,3.04-.65.88-1.42,1.57-2.3,2.09-.88.51-1.88.76-2.98.73ZM602.61,726.29c-.07-2.24-.77-3.4-2.08-3.49-1.02-.06-1.86.44-2.52,1.51-.67,1.07-1.11,2.65-1.32,4.73-.14,1.29-.19,2.29-.15,2.99.07,2.27.77,3.44,2.11,3.5.87.05,1.63-.34,2.26-1.17s1.08-2.05,1.36-3.65.4-3.07.35-4.42Z" fill="#63155b"/>
    <path d="M621.26,719.39l-1.74,12.76c-.25,2.21-.98,3.95-2.19,5.22-1.21,1.27-2.73,1.89-4.56,1.85-1.14-.03-2.13-.33-2.96-.92s-1.46-1.41-1.85-2.48c-.4-1.07-.53-2.29-.4-3.66l1.74-12.77h3.7l-1.73,12.79c-.04.45-.05.87-.02,1.28.04.66.2,1.18.5,1.55.3.37.72.56,1.26.59,1.58.06,2.52-1.08,2.85-3.43l1.74-12.78h3.67Z" fill="#63155b"/>
  </g>
  <g>
    <path d="M467.98,632.91c-.55,0-1.09,0-1.64-.02-.54,0-1.07-.02-1.61-.02l-170.97-.21h-5c-1.38,0-2.76,0-4.13-.02-2.94-.04-4.67-.64-5.61-1.95-.91-1.25-.96-3.02-.18-5.56,1.72-5.57,3.67-11.88,6.73-17.56,2.7-5.01,6.31-9.59,9.79-14.01l1.33-1.7c3.48-4.46,8.18-6.72,13.95-6.72.26,0,.52,0,.79.01,6.62.22,12.14.32,17.37.32,3.65,0,7.04-.05,10.38-.16,2.94-.09,6.09-1.16,8.02-2.72,7.62-6.16,14.63-10.54,22.05-13.8,7.18-3.14,11.55-7.91,12.97-14.16,2.2-9.67,4.97-19.36,7.65-28.74.66-2.29,1.31-4.59,1.96-6.88.09-.33.18-.67.27-1.01.9-3.37,1.92-7.19,6.75-8.36,0-.02.42-.4,1.06-2.62,2.91-10.42,5.81-20.85,8.71-31.28,4.53-16.31,9.21-33.18,13.89-49.76,3.23-11.44,6.58-23.06,9.83-34.29,3.17-10.97,6.45-22.32,9.6-33.5.21-.73.52-1.47.82-2.18,1.13-2.65,1.71-4.38-.56-6.35-.91-.78-.46-2.33.33-4.61l.1-.3c1.16-3.42,2.36-6.84,3.56-10.25,1.68-4.8,3.42-9.76,5.03-14.66,5.14-15.63,13.06-25.04,25.66-30.52,2.33-1.01,4.63-2.23,6.85-3.41,4.97-2.64,10.11-5.38,16.23-6.11,4.21-.51,8.51-.77,12.79-.77,13.76,0,27.87,2.58,43.12,7.88,22.82,7.93,43.11,21.77,60.31,41.12,18.86,21.23,30.04,39.54,36.25,59.38,6.38,20.33,11.51,44.36,1.27,68.41-6.65,15.61-17.44,26.97-32.07,33.76-2.08.97-4.26,1.74-6.38,2.49-2.22.79-4.52,1.6-6.63,2.62-3.29,1.6-5.98,3.54-7.77,5.62-.87,1-.87,3.3-.87,5.15v.76c-.05,3.37,0,6.8.05,10.12.04,2.66.08,5.41.07,8.11,0,2.81.9,4.28,3.11,5.08,4.09,1.48,6.75,4.77,7.47,9.26.92,5.67,1.73,11.23,1.68,16.86-.06,7.52-5.02,10.98-13.08,13.88,3.43,6.78,2.54,13.91,1.68,20.81l-.17,1.4c-.49,3.95-4.39,6.31-7.88,6.31h0c-1.61,0-3.1-.48-4.29-1.39-1.4-1.06-2.89-2.04-4.27-2.04-1.18,0-2.34.71-3.64,2.23-1.17,1.37-2.82,2.12-4.64,2.12-3.48,0-6.56-2.65-7.17-6.16-.71-4.09-.99-8.22-1.26-12.21-.09-1.35-.18-2.68-.29-3.99-16.58,1.91-31.56,2.84-45.77,2.84-17.93,0-34.46-1.46-50.49-4.47,0,.32-.03.65-.13.99-.48,1.71-1.04,3.42-1.59,5.08l-.58,1.78c-.24,1.07-.45,3.37-.65,5.59-.04.44-.08.87-.12,1.3.91.09,1.8.19,2.65.31,1.98.28,4.51,2.61,4.94,4.53,1.82,8.17,3.33,16.55,4.79,24.65l.55,3.05c.3,1.67-.29,3.63-1.66,5.51-1.88,2.58-4.85,4.5-7.57,4.87-1.35.19-2.69.21-3.71.21ZM428.09,579.59c1.46.04,2.92.09,4.38.15,1.17.04,2.35.08,3.53.12.41-3.29,1.78-8.04,2.55-10.7.03-.12.06-.22.1-.33-8.75-2.86-11.31-5.64-10.17-15.87.65-5.87,2.59-11.75,4.59-17.22.96-2.63,3.42-5.36,5.86-6.48,3.49-1.61,4.1-3.81,4.01-7.3-.17-6.18-.14-12.48-.11-18.57.01-2.28.02-4.55.03-6.84l-6.17-3.08c-.42,1.39-.83,2.77-1.23,4.14-1.38,4.65-2.68,9.04-4.13,13.49l-.09.27c-1.15,3.54-2.06,6.33-.63,10.17.89,2.39-.25,5.33-1.36,8.17-.38.97-.73,1.89-1,2.76-2.76,8.99-5.63,18.14-8.4,26.99l-2.59,8.26c4.71,2.02,9.57,4.91,10.83,11.87ZM600.58,454.15c1.95.98,3.84,1.47,5.63,1.47,2.28,0,4.29-.81,5.96-2.41,9.38-8.95,12.91-20.89,10.79-36.49-2.91-21.39-12.6-41.12-29.63-60.32-10.8-12.18-20.77-20.74-31.4-26.95-15.51-9.07-30.12-13.48-44.66-13.48-5.17,0-10.42.57-15.61,1.7-5.64,1.23-13.46,3.64-16.2,10.46-3.03,7.52-5.32,15.26-7.74,23.46-.79,2.68-1.61,5.44-2.46,8.21.89-.58,1.75-1.16,2.59-1.72,3.13-2.09,6.09-4.07,9.26-5.49,9.42-4.2,20.2-6.16,33.91-6.16,2.84,0,5.92.08,9.42.24,21.68,1.02,36.49,9.7,45.27,26.53.96,1.82,2.42,3.39,3.97,5.05,1,1.08,2.04,2.19,2.95,3.39.79,1.05,1.58,2.09,2.38,3.13,2.93,3.83,5.96,7.79,8.4,12.03,3.6,6.28,3.97,13.3,4.32,20.09.09,1.7.18,3.47.32,5.18.09,1.21,1,2.87,1.77,3.23,3.3,1.54,4.66,3.99,4.41,7.94-.15,2.62-.21,5.2-.16,7.66.01.58.04,1.16.06,1.73.16,3.96.34,8.39-3.55,11.52Z"/>
    <path d="M512.74,280.07c14.63,0,28.85,2.98,42.79,7.83,23.59,8.2,43.3,22.17,59.89,40.84,15.59,17.55,28.97,36.43,36.04,59.02,7.01,22.35,10.94,45.1,1.3,67.72-6.32,14.83-16.7,26.34-31.57,33.25-4.22,1.97-8.84,3.09-13.02,5.12-2.98,1.45-5.96,3.4-8.09,5.86-1.25,1.44-1.1,4.32-1.12,6.55-.08,6.08.14,12.16.12,18.24,0,2.88.88,4.98,3.77,6.02,3.96,1.43,6.19,4.57,6.82,8.48.89,5.51,1.72,11.13,1.67,16.69-.05,6.59-4.02,10.08-13.52,13.33,4.18,7.24,2.88,15.01,1.95,22.65-.4,3.26-3.7,5.43-6.89,5.43-1.32,0-2.62-.37-3.69-1.18-1.74-1.32-3.3-2.25-4.88-2.25-1.4,0-2.82.73-4.4,2.58-1.05,1.22-2.45,1.77-3.88,1.77-2.76,0-5.62-2.05-6.19-5.33-1.01-5.78-1.14-11.72-1.62-17.14-15.49,1.81-31.06,2.95-46.68,2.95-17.12,0-34.31-1.36-51.55-4.69,0,.54.16,1.28-.03,1.92-.65,2.3-1.43,4.57-2.16,6.84-.38,1.64-.62,5.21-.9,8.1-3.92-.34-7.89-.41-11.83-.46-2.52-.03-4.17-.43-3.93-3.44.37-4.51-1.93-5.86-5.96-5.86-.16,0-.33,0-.49,0-1.01.03-2.01.04-3.02.04-1.59,0-3.18-.03-4.76-.07.25-3.76,2.46-10.88,2.96-12.72-9.4-2.94-11.48-5.39-10.4-15.1.64-5.77,2.53-11.49,4.54-16.99.86-2.36,3.09-4.88,5.34-5.92,3.9-1.8,4.69-4.35,4.59-8.23-.24-8.64-.08-17.29-.08-26-2.42-1.21-4.93-2.46-7.79-3.89-1.92,6.38-3.7,12.6-5.7,18.75-1.19,3.67-2.29,6.83-.7,11.09,1.03,2.76-1.32,6.86-2.38,10.29-3.68,12-7.46,23.97-11.26,36.12,5.65,2.33,10.24,5.12,11.2,12.28,3.2.08,6.44.23,9.68.32-.09,1.42.09,2.35.76,2.35.02,0,.03,0,.05,0,.03,0,.06,0,.1,0,2.76,0,11.12,7.79,13.99,7.79.08,0,.15,0,.22-.02.5-.09,1.19-.13,1.99-.13,3.84,0,10.29,1.08,11.71,3.86.1.19.19.28.28.28.4,0,.66-1.94.9-4.34,1.21.1,2.41.23,3.6.4,1.56.22,3.76,2.23,4.1,3.76,2.04,9.16,3.66,18.42,5.33,27.66.64,3.57-3.9,8.6-8.38,9.22-1.18.16-2.37.2-3.57.2-1.08,0-2.17-.03-3.25-.03l-170.97-.21c-1.66,0-3.32,0-4.98,0-1.38,0-2.76,0-4.14-.03-4.75-.07-6.26-1.65-4.85-6.21,1.83-5.93,3.73-11.96,6.65-17.38,3-5.56,7.11-10.56,11.03-15.57,3.31-4.24,7.7-6.33,13.16-6.33.25,0,.5,0,.76.01,5.8.19,11.61.33,17.41.33,3.47,0,6.93-.05,10.4-.16,2.93-.09,6.38-1.13,8.62-2.94,6.76-5.46,13.69-10.09,21.82-13.66,5.85-2.56,11.76-7.02,13.54-14.85,2.72-11.97,6.26-23.75,9.6-35.57,1-3.56,1.6-7.53,6.3-8.67.83-.2,1.44-2.1,1.79-3.32,7.55-27.01,14.98-54.05,22.6-81.04,6.38-22.62,13.04-45.16,19.43-67.79.85-3.01,3.73-6.27-.05-9.55-.5-.43.29-2.57.72-3.83,2.83-8.32,5.84-16.58,8.59-24.92,4.39-13.34,11.32-23.92,25.11-29.92,7.55-3.27,14.16-8.41,22.8-9.45,4.26-.51,8.48-.76,12.67-.76M473.49,362.11c5.32-3.31,9.42-6.55,14.03-8.61,10.74-4.79,22.05-6.07,33.5-6.07,3.12,0,6.25.1,9.38.24,19.27.91,35.01,7.94,44.43,25.99,1.68,3.2,4.78,5.62,7,8.58,3.7,4.93,7.66,9.74,10.71,15.06,4.38,7.63,3.81,16.4,4.51,24.85.11,1.45,1.15,3.49,2.34,4.05,3.18,1.49,4.04,3.79,3.84,6.97-.15,2.57-.21,5.16-.16,7.74.1,4.95,1.05,10.12-4.38,13.33,2.6,1.58,5.15,2.38,7.52,2.38,2.49,0,4.77-.89,6.65-2.69,10.79-10.29,12.96-23.6,11.09-37.35-3.18-23.42-14.38-43.39-29.87-60.85-9.24-10.42-19.36-19.97-31.64-27.15-14.38-8.41-29.28-13.61-45.16-13.61-5.17,0-10.44.55-15.83,1.72-6.86,1.49-14.16,4.21-16.92,11.06-4.38,10.88-7.27,22.37-11.04,34.36M512.74,278.07c-4.32,0-8.66.26-12.91.77-6.3.76-11.52,3.54-16.57,6.22-2.2,1.17-4.48,2.38-6.78,3.38-12.89,5.61-20.98,15.21-26.22,31.13-1.61,4.89-3.35,9.85-5.03,14.65-1.17,3.36-2.39,6.83-3.56,10.26l-.1.29c-.78,2.27-1.52,4.42-.03,5.7,1.68,1.46,1.43,2.52.29,5.19-.31.74-.64,1.5-.86,2.3-3.16,11.18-6.43,22.52-9.6,33.49-3.25,11.24-6.6,22.86-9.83,34.31-4.68,16.57-9.36,33.43-13.89,49.74-2.9,10.44-5.8,20.87-8.71,31.3-.35,1.22-.6,1.77-.74,2.02-5.06,1.43-6.18,5.6-7.08,8.97-.09.33-.18.67-.27,1-.65,2.3-1.31,4.6-1.96,6.89-2.68,9.38-5.46,19.08-7.66,28.77-1.35,5.92-5.52,10.45-12.39,13.46-7.51,3.3-14.58,7.72-22.27,13.94-1.75,1.41-4.73,2.41-7.42,2.5-3.32.1-6.7.15-10.34.15-5.22,0-10.73-.1-17.34-.32-.28,0-.55-.01-.82-.01-6.1,0-11.06,2.39-14.74,7.1-.44.56-.89,1.13-1.33,1.7-3.51,4.46-7.14,9.07-9.88,14.16-3.1,5.76-5.07,12.13-6.8,17.74-.56,1.81-1.13,4.44.32,6.44,1.47,2.03,4.2,2.32,6.41,2.36,1.21.02,2.53.03,4.17.03.83,0,1.66,0,2.49,0,.83,0,1.66,0,2.48,0l170.97.21c.53,0,1.07,0,1.6.02.55,0,1.1.02,1.65.02,1.05,0,2.43-.03,3.84-.22,3.02-.42,6.18-2.44,8.24-5.28,1.53-2.11,2.18-4.34,1.83-6.28l-.55-3.02c-1.46-8.12-2.97-16.52-4.8-24.72-.52-2.34-3.38-4.97-5.77-5.31-.56-.08-1.13-.15-1.71-.21,0-.11.02-.21.03-.32.19-2.14.39-4.35.63-5.47.18-.57.37-1.13.55-1.7.55-1.67,1.11-3.39,1.6-5.13,0-.02.01-.05.02-.07,15.77,2.89,32.03,4.29,49.64,4.29,13.95,0,28.64-.89,44.85-2.72.07.96.14,1.93.2,2.94.27,4.02.55,8.18,1.27,12.32.7,3.98,4.2,6.99,8.16,6.99,2.12,0,4.03-.88,5.4-2.47,1.61-1.88,2.57-1.88,2.88-1.88,1.09,0,2.47.93,3.67,1.84,1.37,1.04,3.06,1.59,4.9,1.59,3.93,0,8.32-2.69,8.88-7.19l.17-1.41c.84-6.72,1.7-13.65-1.3-20.38,7.67-2.92,12.65-6.71,12.71-14.43.05-5.71-.81-11.54-1.7-17.02-.78-4.87-3.67-8.44-8.12-10.04-1.55-.56-2.45-1.41-2.45-4.14,0-2.71-.03-5.47-.07-8.13-.05-3.31-.1-6.73-.05-10.08,0-.26,0-.51,0-.77,0-1.5,0-3.77.63-4.49,1.71-1.97,4.29-3.83,7.45-5.37,2.06-1,4.23-1.77,6.52-2.58,2.14-.76,4.34-1.54,6.47-2.53,14.86-6.9,25.81-18.44,32.56-34.28,10.38-24.35,5.2-48.6-1.23-69.1-6.25-19.98-17.5-38.41-36.45-59.75-17.31-19.48-37.74-33.41-60.73-41.4-15.36-5.34-29.57-7.94-43.45-7.94h0ZM477.02,357.43c.57-1.88,1.12-3.74,1.66-5.57,2.42-8.17,4.7-15.89,7.71-23.36,2.57-6.37,10.07-8.68,15.49-9.85,5.12-1.11,10.3-1.68,15.4-1.68,14.35,0,28.8,4.36,44.15,13.34,10.53,6.16,20.43,14.66,31.15,26.75,16.9,19.04,26.51,38.6,29.38,59.79,2.08,15.27-1.35,26.92-10.49,35.63-1.48,1.42-3.25,2.14-5.27,2.14-1.21,0-2.5-.26-3.84-.78,3.07-3.34,2.9-7.66,2.76-11.26-.02-.57-.05-1.14-.06-1.71-.05-2.44,0-4.99.16-7.58.17-2.73-.16-6.63-4.99-8.9-.38-.2-1.12-1.46-1.19-2.39-.14-1.71-.23-3.46-.32-5.16-.36-6.91-.73-14.05-4.45-20.53-2.47-4.3-5.52-8.29-8.47-12.14-.8-1.04-1.59-2.08-2.38-3.12-.93-1.25-1.99-2.38-3.01-3.47-1.5-1.61-2.92-3.13-3.81-4.83-8.96-17.16-24.04-26.02-46.11-27.06-3.52-.16-6.61-.24-9.47-.24-13.86,0-24.76,1.98-34.32,6.24-3.25,1.45-6.24,3.45-9.41,5.57-.09.06-.18.12-.27.18h0ZM418.48,567.16c.77-2.45,1.53-4.9,2.3-7.34,2.78-8.88,5.66-18.06,8.42-27.07.26-.84.61-1.74.98-2.69,1.17-3.02,2.39-6.14,1.36-8.89-1.31-3.5-.49-6.02.64-9.51l.09-.27c1.45-4.47,2.76-8.86,4.14-13.52.3-.99.59-1.99.89-2.99l2.06,1.03,2.49,1.24c0,2.07-.01,4.15-.03,6.22-.03,6.1-.07,12.4.11,18.6.09,3.66-.67,5.09-3.43,6.36-2.7,1.25-5.32,4.15-6.38,7.05-2.02,5.53-3.99,11.48-4.65,17.45-1.15,10.37,1.61,13.73,9.94,16.62-.72,2.5-1.79,6.32-2.28,9.36-.88-.03-1.76-.06-2.64-.09-1.2-.04-2.4-.09-3.59-.12-1.47-6.46-5.92-9.42-10.43-11.45h0ZM442.15,582.96c.9,0,1.76-.02,2.6-.04.14,0,.29,0,.43,0,1.75,0,2.91.29,3.43.86.47.51.65,1.46.54,2.84-.03.37-.04.72-.02,1.05-1.13-.72-2.37-1.59-3.31-2.24-1.4-.97-2.61-1.81-3.67-2.47h0Z" fill="#fff"/>
  </g>
  <g>
    <path d="M651.46,387.71c-7.07-22.59-20.45-41.47-36.04-59.02-16.59-18.67-36.3-32.64-59.89-40.84-17.94-6.24-36.33-9.38-55.46-7.07-8.64,1.04-15.25,6.18-22.8,9.45-13.79,6-20.72,16.58-25.11,29.92-2.75,8.34-5.76,16.6-8.59,24.92-.43,1.26-1.22,3.4-.72,3.83,3.78,3.28.9,6.54.05,9.55-6.39,22.63-13.05,45.17-19.43,67.79-7.62,26.99-15.05,54.03-22.6,81.04-.35,1.22-.96,3.12-1.79,3.32-4.7,1.14-5.3,5.11-6.3,8.67-3.34,11.82-6.88,23.6-9.6,35.57-1.78,7.83-7.69,12.29-13.54,14.85-8.13,3.57-15.06,8.2-21.82,13.66-2.24,1.81-5.69,2.85-8.62,2.94-9.26.29-18.54.14-27.81-.17-5.82-.2-10.46,1.89-13.92,6.32-3.92,5.01-8.03,10.01-11.03,15.57-2.92,5.42-4.82,11.45-6.65,17.38-1.41,4.56.1,6.14,4.85,6.21,3.04.05,6.08.02,9.12.02l170.97.21c2.28,0,4.58.14,6.82-.17,4.48-.62,9.02-5.65,8.38-9.22-1.67-9.24-3.29-18.5-5.33-27.66-.34-1.53-2.54-3.54-4.1-3.76-5.09-.69-10.28-.79-15.43-.86-2.52-.03-4.17-.43-3.93-3.44.38-4.69-2.12-5.96-6.45-5.85-5.84.16-11.7-.21-17.46-.35-.96-7.16-5.55-9.95-11.2-12.28,3.8-12.15,7.58-24.12,11.26-36.12,1.06-3.43,3.41-7.53,2.38-10.29-1.59-4.26-.49-7.42.7-11.09,2-6.15,3.78-12.37,5.7-18.75,2.86,1.43,5.37,2.68,7.79,3.89,0,8.71-.16,17.36.08,26,.1,3.88-.69,6.43-4.59,8.23-2.25,1.04-4.48,3.56-5.34,5.92-2.01,5.5-3.9,11.22-4.54,16.99-1.08,9.71,1,12.16,10.4,15.1-.69,2.54-4.68,15.25-2.15,15.07,2.72-.2,11.64,8.22,14.31,7.77,2.94-.51,11.98.37,13.69,3.72,1.11,2.18,1.36-8.89,2.08-12.16.73-2.27,1.51-4.54,2.16-6.84.19-.64.03-1.38.03-1.92,32.98,6.36,65.76,5.54,98.23,1.74.48,5.42.61,11.36,1.62,17.14.87,4.98,7.01,7.13,10.07,3.56,3.36-3.92,5.99-2.82,9.28-.33,3.67,2.79,10.01.36,10.58-4.25.93-7.64,2.23-15.41-1.95-22.65,9.5-3.25,13.47-6.74,13.52-13.33.05-5.56-.78-11.18-1.67-16.69-.63-3.91-2.86-7.05-6.82-8.48-2.89-1.04-3.77-3.14-3.77-6.02.02-6.08-.2-12.16-.12-18.24.02-2.23-.13-5.11,1.12-6.55,2.13-2.46,5.11-4.41,8.09-5.86,4.18-2.03,8.8-3.15,13.02-5.12,14.87-6.91,25.25-18.42,31.57-33.25,9.64-22.62,5.71-45.37-1.3-67.72ZM612.86,453.88c-3.67,3.51-8.84,3.55-14.17.31,5.43-3.21,4.48-8.38,4.38-13.33-.05-2.58.01-5.17.16-7.74.2-3.18-.66-5.48-3.84-6.97-1.19-.56-2.23-2.6-2.34-4.05-.7-8.45-.13-17.22-4.51-24.85-3.05-5.32-7.01-10.13-10.71-15.06-2.22-2.96-5.32-5.38-7-8.58-9.42-18.05-25.16-25.08-44.43-25.99-14.63-.68-29.22-.26-42.88,5.83-4.61,2.06-8.71,5.3-14.03,8.61,3.77-11.99,6.66-23.48,11.04-34.36,2.76-6.85,10.06-9.57,16.92-11.06,21.96-4.77,41.93.75,60.99,11.89,12.28,7.18,22.4,16.73,31.64,27.15,15.49,17.46,26.69,37.43,29.87,60.85,1.87,13.75-.3,27.06-11.09,37.35Z" fill="#fff"/>
    <path d="M651.43,387.81c-7.07-22.59-20.45-41.47-36.04-59.02-16.59-18.67-36.3-32.64-59.89-40.84-17.94-6.24-36.33-9.38-55.46-7.07-8.64,1.04-15.25,6.18-22.8,9.45-13.79,6-20.72,16.58-25.11,29.92-2.75,8.34-5.76,16.6-8.59,24.92-.43,1.26-1.22,3.4-.72,3.83,3.78,3.28.9,6.54.05,9.55-6.39,22.63-13.05,45.17-19.43,67.79-7.62,26.99-15.05,54.03-22.6,81.04-.35,1.22-.96,3.12-1.79,3.32-4.7,1.14-5.3,5.11-6.3,8.67-3.34,11.82-6.88,23.6-9.6,35.57-1.78,7.83-7.69,12.29-13.54,14.85-8.13,3.57-15.06,8.2-21.82,13.66-2.24,1.81-5.69,2.85-8.62,2.94-9.26.29-18.54.14-27.81-.17-5.82-.2-10.46,1.89-13.92,6.32-3.92,5.01-8.03,10.01-11.03,15.57-2.92,5.42-4.82,11.45-6.65,17.38-1.41,4.56.1,6.14,4.85,6.21,3.04.05,6.08.02,9.12.02l170.97.21c2.28,0,4.58.14,6.82-.17,4.48-.62,9.02-5.65,8.38-9.22-1.67-9.24-3.29-18.5-5.33-27.66-.34-1.53-2.54-3.54-4.1-3.76-5.09-.69-10.28-.79-15.43-.86-2.52-.03-4.17-.43-3.93-3.44.38-4.69-2.12-5.96-6.45-5.85-5.84.16-11.7-.21-17.46-.35-.96-7.16-5.55-9.95-11.2-12.28,3.8-12.15,7.58-24.12,11.26-36.12,1.06-3.43,3.41-7.53,2.38-10.29-1.59-4.26-.49-7.42.7-11.09,2-6.15,3.78-12.37,5.7-18.75,2.86,1.43,5.37,2.68,7.79,3.89,0,8.71-.16,17.36.08,26,.1,3.88-.69,6.43-4.59,8.23-2.25,1.04-4.48,3.56-5.34,5.92-2.01,5.5-3.9,11.22-4.54,16.99-1.08,9.71,1,12.16,10.4,15.1-.69,2.54-4.68,15.25-2.15,15.07,2.72-.2,11.64,8.22,14.31,7.77,2.94-.51,11.98.37,13.69,3.72,1.11,2.18,1.26-8.38,2.08-12.16.73-2.27,1.51-4.54,2.16-6.84.19-.64.03-1.38.03-1.92,32.98,6.36,65.76,5.54,98.23,1.74.48,5.42.61,11.36,1.62,17.14.87,4.98,7.01,7.13,10.07,3.56,3.36-3.92,5.99-2.82,9.28-.33,3.67,2.79,10.01.36,10.58-4.25.93-7.64,2.23-15.41-1.95-22.65,9.5-3.25,13.47-6.74,13.52-13.33.05-5.56-.78-11.18-1.67-16.69-.63-3.91-2.86-7.05-6.82-8.48-2.89-1.04-3.77-3.14-3.77-6.02.02-6.08-.2-12.16-.12-18.24.02-2.23-.13-5.11,1.12-6.55,2.13-2.46,5.11-4.41,8.09-5.86,4.18-2.03,8.8-3.15,13.02-5.12,14.87-6.91,25.25-18.42,31.57-33.25,9.64-22.62,5.71-45.37-1.3-67.72ZM650.63,407.44c-6.78-2.08-13.99-.95-20.2,1.19,3.46-7.36,15.72-6.59,20.2-1.19ZM648.83,399.52c-6.56-1.06-14.03-1.53-20.31,1.68,4.96-7.4,16.29-7.58,20.31-1.68ZM626.71,394.04c-.1-.53,1.51-4.82,6.48-6.84,4.46-1.81,8.62-1.49,13.38,3.02-7.14-.88-15.15.19-19.86,3.82ZM644.43,382.53c-8.07-1.62-16.06-.02-21.39,4.71-.14-.62,1.94-5.81,7.79-7.9s12.24,1.19,13.6,3.19ZM639.41,374.29c-7.22-.97-13.95,3.24-18.26,6.41,2.21-5.25,2.9-6.15,7.87-7.97,4.36-1.6,10.18,1.09,10.38,1.56ZM635.66,366.87c-8.68.22-13.29,5.14-17.68,8.91.45-8.98,13.39-11.31,17.68-8.91ZM631.03,360.36c-6.51-1.68-14.87,4.04-17.98,10.53-.39-.61,1.02-6.11,2.2-8.01,1.53-2.46,6.07-4.96,9.45-4.86,3.6.11,6.73,2.44,6.32,2.33ZM626.43,352.48c-6.35.9-14.13,4.8-18.41,11.33,1.79-10.64,13.63-14.37,18.41-11.33ZM620.47,345.68c-7.08.52-13.77,6.28-16.55,11.42.37-8.53,8.48-14.91,16.55-11.42ZM606.55,336.86c2.87-1.17,8.2.5,7.66.63-5.55,1.31-13.35,7.66-14.74,13.1-1.23-7.48,2.85-12,7.08-13.72ZM608.02,330.53c-4.97,1.83-11.47,6.78-14.23,12.39-.4-.38,1.14-8.16,5.53-11.57,2.38-1.84,7.58-2.51,8.71-.82ZM601.3,326.16c-4.4,1.79-9.13,7.86-12.16,12.04-.24-.23-.17-2.33.49-3.74,1.34-2.84,5.17-8.01,7.97-9.43,2.56-1.3,4.86.65,3.69,1.12ZM597.83,321.1c-5.61,3-11.61,7.27-14.18,13.92-.43-.44-.43-3.01-.32-3.62.67-3.99,3.06-7.3,7.23-9.92,3.04-1.91,5.24-1.79,7.27-.38ZM589.71,315.23c-4.05,4.6-7.79,9.9-11.04,14.47.52-6.03,6.21-13.55,11.04-14.47ZM580.82,310c.7.57.64,1.72.54,2.42-.49,3.73-6.55,11.27-8.63,11.83-.52.14-1.75.62-2.16.28,3.37-4.68,5.82-10.11,8.3-14.52.26-.47,1.56-.32,1.95,0ZM573.56,309.76c-.36,2.75-3.89,8.15-5.96,9.34-.57.33-3.8,1.42-4.38,1.1,3.95-3.56,8.06-11.03,8.78-15.97.24-1.62,1.75,4.11,1.56,5.53ZM563.55,299.24c.96.4,2.49,4.69,2.23,6.86-.58,4.95-3.66,9.28-9.93,10.41,4.47-3.65,7.59-14.92,7.69-17.28ZM555.71,295.9c3.87,5.32,1.06,14.12-5.48,18.22,3.39-6.24,5.81-13.52,5.48-18.22ZM547.49,292.11c3.16,4.99.6,16.64-6.36,18.23,4.18-5.5,6.31-10.62,6.36-18.23ZM538.73,289.3c4.71,6.6.8,14.71-3.95,19.19,2.72-5.53,3.72-11.78,3.95-19.19ZM529.54,288.98c.47-.1,2.87,5.92,2.49,9.97-.16,1.85-.99,7.9-5.82,7.99,4.11-7.15,4.22-15.65,3.33-17.96ZM520.59,288.72c2.84,1.43,3.74,4.4,3.94,6.11.76,6.56-.67,9.15-5.48,10.94,2.79-3.35,3.73-13.55,1.54-17.05ZM511.43,306.77c2.05-6.91,1.34-13.29-.23-18.32,4.63.49,5.91,11.09.23,18.32ZM504.97,306.55c.95-5.8-1.17-12.97-4.04-18.39,5.08,2.15,9.41,12.41,4.04,18.39ZM498.31,295.2c2.16,4.06,2.61,8.68.03,13.9-2.52-6.61-4.38-14.7-10.22-18.48,3.7-1.35,8.97,2.3,10.19,4.58ZM471.97,304.99c2.06,2.69,3.47,4.52,4.89,6.37,4.35-3.33,2.27-7.31-.79-10.65,4.24-3.48,7.21-1.87,10.08,2.19,1.91,2.7,1.26,6.39-2.15,9.13-6.47,5.2-8.41,13.15-10.86,20.63-1.59,4.85-2.81,9.82-4.02,14.12-4.23-1.76-8.07-3.35-12.42-5.15,4.9-11.52,6.54-25.19,15.27-36.64ZM312.84,595.65c7.13,0,14.72,0,22.88.06-11.14,6.45-27.83,8.18-36.6,8.4,2.59-5.27,8.69-8.46,13.73-8.46ZM470.02,619.8c.37,1.99-1.32,2.87-2.66,2.87-1.22,0-3.42-.73-3.05-3.04.47-2.98,3.52-13.1,3.52-13.1,0,0,1.64,10.3,2.19,13.27ZM442.82,590.41c-1.36,3.22-2.55,6.45-4.11,9.49-.47.92-1.97,1.86-2.99,1.85-2.68-.01-5.36-.53-8.05-.85,1.74-10.97,4.38-12.82,15.15-10.49ZM416.14,584.93c-2.53,4.66-5.37,9.15-8.07,13.72-.49.84-.9,1.73-1.62,3.13,4.22-1.97,7.81-3.65,12.64-5.91-1.11,3.6-1.92,5.81-2.48,8.08-1.23,4.99.35,7.37,5.37,7.58,5.76.24,11.54.28,17.3.11,5.19-.16,8.41-3.06,8.83-8.2.26-3.17,1.54-4.29,4.53-4.22,3.04.08,6.08.03,9.12-.11,3.67-.17,4.25,1.77,3.07,4.59-1.7,4.05-3.5,8.09-5.61,11.94-1.82,3.47-12.01,4.29-37.9,4.29h-125.88c-.68,0-1.16-.66-.95-1.31l.5-1.54c.27-.83,1.04-1.38,1.9-1.38h87.67c2.13,0,3.58-2.16,2.78-4.13l-.78-1.9c-.31-.75-1.04-1.24-1.85-1.24h-65.74s-3.19.02-8.94,0c50.5-8.9,54.08-26.23,69.6-33.27,2.41-1.09,5.1-1.94,7.73-2.17,9.98-.89,19.14,2.01,27.91,6.58,2.93,1.53,1.81,3.64.87,5.38ZM418.54,529.43c-2.44,9.19-5.48,18.22-8.43,27.76-4.21-1.38-8.62-2.83-13.38-4.39,2.44-9.29,4.1-15.9,6.77-24.84.32-1.07,3.05-2.04,4.58-1.93,1.62.12,3.51,1.84,3.25,3.14-.92,7.01-1.33,9.59-2.02,14.77.33.08.67.17,1,.25,1.39-5.68,2.96-11.33,4.08-17.06.64-3.27-1.68-5.16-4.41-5.67-1.81-.33-3.04-.17-5.62,1.28,2.49-5.36,11.2-4.32,13.28-1.53,1.97,2.64,1.58,5.67.9,8.22ZM434.62,470.21c-4.01,13.79-8.34,27.73-12.76,41.73.13-.02-.61-.13-1.01-.23-8.23-2.08-8.37-2.13-6.04-10.11,8.58-29.4,17.24-58.78,25.9-88.15,5.58-18.91,11.21-37.8,16.83-56.7.26-.85.72-1.63,1.21-2.7,6.69,3.46,7.68,5.2,5.84,11.64-9.91,34.86-19.83,69.72-29.97,104.52ZM443.79,483.16c-.04.36-1.41.99-1.74.8-.77-.47-1.91-1.48-1.8-2.05.81-4.16,1.89-8.27,2.89-12.4.65.09,1.3.18,1.96.27-.41,4.46-.78,8.93-1.31,13.38ZM590.61,583.86c-2.37-3.23-4.69-4.93-6.93-4.94-2.45-.01-5.41,4.02-7.03,5.99-.09-1.6-.66-6.26,1.64-8.53,2.48-2.45,6.9-3.11,9.99-1.34,3.62,2.07,2.73,5.89,2.34,8.82ZM603.3,544.74c1.14,8.35,1.45,9.91-7.9,12.24-15.12,3.77-34.49,10.53-87.24,8.16-2.67-.12-2.52-1.94-1.52-3.22,3.66-4.68,8.04-5.68,22.19-7.29.53-.06.92-.52.89-1.05-.01-.17-.02-.34-.04-.51-.04-.54-.51-.95-1.05-.92-7.23.42-19.95.9-23.45.81-2.23-.06-6.39,7.49-9.12,10.83-.74.9-2.12.99-2.93.16-2.16-2.22-3.41-6.54-4.89-9.6-.64-1.32-2.01-3.01-3.26-3.21-3.8-.61-25.69-4.29-35.65-6.99-6.41-1.74-6.21-2.68-6.21-5,12.89,3.69,26.47,5.74,36.37,7.2,33.76,4.98,67.09,1.89,100.41-4.82,20.03-4.03,22.17-5.8,23.4,3.2ZM552,405.21h-44.27c-1.64,0-3.16-.87-4-2.28l-7.39-12.48c-1.97-3.33.43-7.55,4.3-7.55h63.24c2.61,0,5.11,1.01,6.97,2.83,5.16,5.02,15.19,16.04,17.04,27.31.41,2.51.75,7.13.92,9.83.08,1.15-.84,2.12-1.99,2.12h-67.18c-1.77,0-3.4-.93-4.3-2.45l-.92-1.55c-.79-1.33.17-3.02,1.72-3.02h40.86c1.1,0,2-.9,2-2v-3.76c0-3.87-3.13-7-7-7ZM485.73,372.53c3.71-17.95,67.3-18.98,71.3,0h-71.3ZM591.65,435.02c1.1,0,2,.9,2,2v5.65c0,1.1-.9,2-2,2h-70.55c-5.21,0-10.42-.31-15.59-.97-4.59-.58-14.64-2.6-22.78-4.29-.55-.12-1.02-.46-1.31-.94l-1.15-1.94c-.39-.67.09-1.51.86-1.51h110.52ZM553.83,491.18c-.99-15.65-13.68-28.37-29.33-29.37-6.75-.44-13.07,1.25-18.37,4.46-3.03,1.86-3.91,2.79-5.66,4.37l-5.16-8.71c-1.98-3.34.42-7.55,4.29-7.55h83.37c3.85,0,6.98,3.11,7,6.97.05,14.19.22,46.5.57,63.24.09,4.03-1.09,5.44-4.8,6.42-13.76,3.63-27.32,5.72-40.73,6.48-2.69.15-5.4-.73-6.89-3.25-1.7-2.87-3.48-5.88-6.46-10.91,13.49-4.14,23.11-17.1,22.17-32.15ZM522.41,516.34c-12.77,0-23.12-10.35-23.12-23.12s10.35-23.11,23.12-23.11,23.11,10.35,23.11,23.11-10.35,23.12-23.11,23.12ZM598.84,479.77c-.27-3.95-1-8.01-.56-11.95.15-1.34,3.25-2.35,5.44-3.79,1.6,12.59,2.2,15.77-4.88,15.74ZM598.66,454.29c5.43-3.21,4.48-8.38,4.38-13.33-.05-2.58.01-5.17.16-7.74.2-3.18-.66-5.48-3.84-6.97-1.19-.56-2.23-2.6-2.34-4.05-.7-8.45-.13-17.22-4.51-24.85-3.05-5.32-7.01-10.13-10.71-15.06-2.22-2.96-5.32-5.38-7-8.58-9.42-18.05-25.16-25.08-44.43-25.99-14.63-.68-29.22-.26-42.88,5.83-4.61,2.06-8.71,5.3-14.03,8.61,3.77-11.99,6.66-23.48,11.04-34.36,2.76-6.85,10.06-9.57,16.92-11.06,21.96-4.77,41.93.75,60.99,11.89,12.28,7.18,22.4,16.73,31.64,27.15,15.49,17.46,26.69,37.43,29.87,60.85,1.87,13.75-.3,27.06-11.09,37.35-3.67,3.51-8.84,3.55-14.17.31ZM611.43,464.86c4.71,4.38,9.44,12.04,5.77,16.52-1.64-4.08-1.34-9.66-5.77-16.52ZM617.47,463.12c-.41-.34-.67-.85-.61-1.38.11-1.05.66-1.98.97-1.7,5.58,5.14,7.52,11.25,8.3,18.29-2.42-6.59-5.18-12.33-8.66-15.21ZM633.31,473.22c-3.39-5.76-5.24-11.2-10.97-15.59,6.34.88,11.36,8.19,10.97,15.59ZM639.44,466.26c-2.24-5.7-7.99-11.76-12.63-14.31,4.4-.69,14.72,7.9,12.63,14.31ZM627.47,446.08c8.16-2.5,16.6,5.71,16.32,13.01-3.84-6.92-9.28-10.67-16.32-13.01ZM646.99,449.69c-2.91-8.14-9.02-10.99-16.33-11.93,3.52-3.17,9.01-1.28,11.4-.11,4.19,2.05,5.81,6.3,4.93,12.04ZM633.89,430.45c4.1-4.98,13.96-3.08,16.43,6.25-4.49-5.63-11.09-6.93-16.43-6.25ZM633.59,423.5c2.11-4.56,14.83-4.65,18.32,3.14-5.53-3.6-12.31-4.12-18.32-3.14ZM633.49,415.05c2.99-3.61,7.17-3.7,11.32-3.69,2.73.01,5.69,1.69,7.24,5.68-9.06-4.17-18.56-1.99-18.56-1.99ZM458.49,583.26c-1.32-3.78-3.04-6.08-5.19-6.75-2.34-.73-6.35,2.26-8.48,3.67.38-1.55,1.2-6.18,4.06-7.68,3.09-1.61,7.51-.96,9.95,1.64,2.85,3.04.89,6.43-.34,9.12Z" fill="#0e1820"/>
    <circle cx="522.44" cy="493.17" r="17.81"/>
  </g>
</svg>